<?xml version="1.0" encoding="us-ascii" standalone="no"?><svg xmlns="http://www.w3.org/2000/svg" xmlns:xlink="http://www.w3.org/1999/xlink" contentStyleType="text/css" height="1408px" preserveAspectRatio="none" style="width:1069px;height:1408px;background:#FFFFFF;" version="1.1" viewBox="0 0 1069 1408" width="1069px" zoomAndPan="magnify"><defs/><g><!--cluster Notes--><g id="cluster_Notes"><path d="M413.5,6 L455.5,6 A3.75,3.75 0 0 1 458,8.5 L465,29.6094 L962.5,29.6094 A2.5,2.5 0 0 1 965,32.1094 L965,113.5 A2.5,2.5 0 0 1 962.5,116 L413.5,116 A2.5,2.5 0 0 1 411,113.5 L411,8.5 A2.5,2.5 0 0 1 413.5,6 " fill="none" style="stroke:#000000;stroke-width:1.5;"/><line style="stroke:#000000;stroke-width:1.5;" x1="411" x2="465" y1="29.6094" y2="29.6094"/><text fill="#000000" font-family="sans-serif" font-size="14" font-weight="bold" lengthAdjust="spacing" textLength="41" x="415" y="22.5332">Notes</text></g><g id="elem_Python 3.10 / 3.11 supported"><ellipse cx="837.934" cy="70.9868" fill="#F1F1F1" rx="110.434" ry="24.4868" style="stroke:#181818;stroke-width:0.5;"/><text fill="#000000" font-family="sans-serif" font-size="14" lengthAdjust="spacing" textLength="184" x="745.934" y="74.7153">Python 3.10 / 3.11 supported</text></g><g id="elem_Ollama qwen2.5-7b on local machine"><ellipse cx="560.1999" cy="70.94" fill="#F1F1F1" rx="132.6999" ry="28.94" style="stroke:#181818;stroke-width:0.5;"/><text fill="#000000" font-family="sans-serif" font-size="14" lengthAdjust="spacing" textLength="232" x="444.1999" y="74.6685">Ollama qwen2.5-7b on local machine</text></g><!--entity User--><g id="elem_User"><ellipse cx="378" cy="40.5" fill="#F1F1F1" rx="8" ry="8" style="stroke:#181818;stroke-width:0.5;"/><path d="M378,48.5 L378,75.5 M365,56.5 L391,56.5 M378,75.5 L365,90.5 M378,75.5 L391,90.5 " fill="none" style="stroke:#181818;stroke-width:0.5;"/><text fill="#000000" font-family="sans-serif" font-size="14" lengthAdjust="spacing" textLength="29" x="363.5" y="106.5332">User</text></g><g id="elem_Main Thread &quot;UI&quot;"><ellipse cx="378.2363" cy="221.7473" fill="#F1F1F1" rx="76.7363" ry="17.7473" style="stroke:#181818;stroke-width:0.5;"/><text fill="#000000" font-family="sans-serif" font-size="14" lengthAdjust="spacing" textLength="106" x="322.7006" y="226.1555">Main Thread "UI"</text></g><g id="elem_UI Display"><ellipse cx="167.2356" cy="1386.5492" fill="#F1F1F1" rx="55.7356" ry="15.5492" style="stroke:#181818;stroke-width:0.5;"/><text fill="#000000" font-family="sans-serif" font-size="14" lengthAdjust="spacing" textLength="62" x="133.2356" y="1391.0658">UI Display</text></g><g id="elem_Recording Thread"><ellipse cx="558.7827" cy="351.4565" fill="#F1F1F1" rx="80.2827" ry="18.4565" style="stroke:#181818;stroke-width:0.5;"/><text fill="#000000" font-family="sans-serif" font-size="14" lengthAdjust="spacing" textLength="115" x="500.4192" y="355.4341">Recording Thread</text></g><g id="elem_Transcription Thread"><ellipse cx="370.8193" cy="999.9639" fill="#F1F1F1" rx="87.8193" ry="19.9639" style="stroke:#181818;stroke-width:0.5;"/><text fill="#000000" font-family="sans-serif" font-size="14" lengthAdjust="spacing" textLength="133" x="304.3193" y="1003.6924">Transcription Thread</text></g><g id="elem_Sound Device Thread"><ellipse cx="558.9659" cy="468.3932" fill="#F1F1F1" rx="89.9659" ry="20.3932" style="stroke:#181818;stroke-width:0.5;"/><text fill="#000000" font-family="sans-serif" font-size="14" lengthAdjust="spacing" textLength="138" x="489.9659" y="472.1217">Sound Device Thread</text></g><g id="elem_Whisper Thread"><ellipse cx="643.2256" cy="726.4451" fill="#F1F1F1" rx="75.2256" ry="17.4451" style="stroke:#181818;stroke-width:0.5;"/><text fill="#000000" font-family="sans-serif" font-size="14" lengthAdjust="spacing" textLength="102" x="589.2256" y="730.9617">Whisper Thread</text></g><!--entity Audio Queue--><g id="elem_Audio Queue"><rect fill="#F1F1F1" height="47.6094" rx="2.5" ry="2.5" style="stroke:#181818;stroke-width:0.5;" width="123" x="441.5" y="583"/><rect fill="#F1F1F1" height="10" style="stroke:#181818;stroke-width:0.5;" width="15" x="544.5" y="588"/><rect fill="#F1F1F1" height="2" style="stroke:#181818;stroke-width:0.5;" width="4" x="542.5" y="590"/><rect fill="#F1F1F1" height="2" style="stroke:#181818;stroke-width:0.5;" width="4" x="542.5" y="594"/><text fill="#000000" font-family="sans-serif" font-size="14" lengthAdjust="spacing" textLength="83" x="456.5" y="617.5332">Audio Queue</text></g><!--entity Transcription Queue--><g id="elem_Transcription Queue"><rect fill="#F1F1F1" height="47.6094" rx="2.5" ry="2.5" style="stroke:#181818;stroke-width:0.5;" width="170" x="600" y="583"/><rect fill="#F1F1F1" height="10" style="stroke:#181818;stroke-width:0.5;" width="15" x="750" y="588"/><rect fill="#F1F1F1" height="2" style="stroke:#181818;stroke-width:0.5;" width="4" x="748" y="590"/><rect fill="#F1F1F1" height="2" style="stroke:#181818;stroke-width:0.5;" width="4" x="748" y="594"/><text fill="#000000" font-family="sans-serif" font-size="14" lengthAdjust="spacing" textLength="130" x="615" y="617.5332">Transcription Queue</text></g><!--entity Live Text UI Queue--><g id="elem_Live Text UI Queue"><rect fill="#F1F1F1" height="47.6094" rx="2.5" ry="2.5" style="stroke:#181818;stroke-width:0.5;" width="160" x="687" y="838"/><rect fill="#F1F1F1" height="10" style="stroke:#181818;stroke-width:0.5;" width="15" x="827" y="843"/><rect fill="#F1F1F1" height="2" style="stroke:#181818;stroke-width:0.5;" width="4" x="825" y="845"/><rect fill="#F1F1F1" height="2" style="stroke:#181818;stroke-width:0.5;" width="4" x="825" y="849"/><text fill="#000000" font-family="sans-serif" font-size="14" lengthAdjust="spacing" textLength="120" x="702" y="872.5332">Live Text UI Queue</text></g><!--entity saved_block--><g id="elem_saved_block"><rect fill="#F1F1F1" height="47.6094" rx="2.5" ry="2.5" style="stroke:#181818;stroke-width:0.5;" width="119" x="376.5" y="838"/><rect fill="#F1F1F1" height="10" style="stroke:#181818;stroke-width:0.5;" width="15" x="475.5" y="843"/><rect fill="#F1F1F1" height="2" style="stroke:#181818;stroke-width:0.5;" width="4" x="473.5" y="845"/><rect fill="#F1F1F1" height="2" style="stroke:#181818;stroke-width:0.5;" width="4" x="473.5" y="849"/><text fill="#000000" font-family="sans-serif" font-size="14" lengthAdjust="spacing" textLength="79" x="391.5" y="872.5332">saved_block</text></g><g id="elem_API Request for Ollama qwen2.5"><ellipse cx="371.1279" cy="1124.3256" fill="#F1F1F1" rx="119.6279" ry="26.3256" style="stroke:#181818;stroke-width:0.5;"/><text fill="#000000" font-family="sans-serif" font-size="14" lengthAdjust="spacing" textLength="204" x="269.1279" y="1128.0541">API Request for Ollama qwen2.5</text></g><!--entity cleaned_notes--><g id="elem_cleaned_notes"><rect fill="#F1F1F1" height="47.6094" rx="2.5" ry="2.5" style="stroke:#181818;stroke-width:0.5;" width="133" x="189.5" y="1245"/><rect fill="#F1F1F1" height="10" style="stroke:#181818;stroke-width:0.5;" width="15" x="302.5" y="1250"/><rect fill="#F1F1F1" height="2" style="stroke:#181818;stroke-width:0.5;" width="4" x="300.5" y="1252"/><rect fill="#F1F1F1" height="2" style="stroke:#181818;stroke-width:0.5;" width="4" x="300.5" y="1256"/><text fill="#000000" font-family="sans-serif" font-size="14" lengthAdjust="spacing" textLength="93" x="204.5" y="1279.5332">cleaned_notes</text></g><g id="elem_Save Text"><ellipse cx="343.9744" cy="1386.5553" fill="#F1F1F1" rx="56.4744" ry="15.5553" style="stroke:#181818;stroke-width:0.5;"/><text fill="#000000" font-family="sans-serif" font-size="14" lengthAdjust="spacing" textLength="63" x="309.4744" y="1391.0719">Save Text</text></g><!--link User to Main Thread "UI"--><g id="link_User_Main Thread &quot;UI&quot;"><path d="M378,110.24 C378,140.49 378,175.26 378,197.79 " fill="none" id="User-to-Main Thread &quot;UI&quot;" style="stroke:#181818;stroke-width:1.0;"/><polygon fill="#181818" points="378,203.79,382,194.79,378,198.79,374,194.79,378,203.79" style="stroke:#181818;stroke-width:1.0;"/><text fill="#000000" font-family="sans-serif" font-size="13" lengthAdjust="spacing" textLength="108" x="379" y="154.4951">Launch application</text><text fill="#000000" font-family="sans-serif" font-size="13" lengthAdjust="spacing" textLength="47" x="411.5" y="170.8467">Initialize</text></g><!--link Main Thread "UI" to UI Display--><g id="link_Main Thread &quot;UI&quot;_UI Display"><path d="M454.46,222.66 C618.4,225.07 989,242.46 989,350.5 C989,350.5 989,350.5 989,1270 C989,1350.67 350.07,1361.12 270,1371 C251.9,1373.23 237.9895,1375.11 220.5895,1377.6 " fill="none" id="Main Thread &quot;UI&quot;-to-UI Display" style="stroke:#181818;stroke-width:1.0;"/><polygon fill="#181818" points="214.65,1378.45,224.1259,1381.1347,219.5996,1377.7417,222.9926,1373.2154,214.65,1378.45" style="stroke:#181818;stroke-width:1.0;"/><text fill="#000000" font-family="sans-serif" font-size="13" lengthAdjust="spacing" textLength="71" x="990" y="788.4951">Main Thread</text><text fill="#000000" font-family="sans-serif" font-size="13" lengthAdjust="spacing" textLength="63" x="994" y="804.8467">Initialize UI</text></g><!--link Main Thread "UI" to UI Display--><g id="link_Main Thread &quot;UI&quot;_UI Display"><path d="M313.63,231.14 C207.16,247.26 6,286.21 6,350.5 C6,350.5 6,350.5 6,1270 C6,1329.34 73.3575,1359.4112 121.0475,1373.8512 " fill="none" id="Main Thread &quot;UI&quot;-to-UI Display-1" style="stroke:#181818;stroke-width:1.0;"/><polygon fill="#181818" points="126.79,1375.59,119.3354,1369.1535,122.0046,1374.141,117.017,1376.8102,126.79,1375.59" style="stroke:#181818;stroke-width:1.0;"/><text fill="#000000" font-family="sans-serif" font-size="13" lengthAdjust="spacing" textLength="167" x="7" y="796.4951">Appends live text in real time</text></g><!--link Main Thread "UI" to Recording Thread--><g id="link_Main Thread &quot;UI&quot;_Recording Thread"><path d="M400.56,238.45 C434.96,262.78 495.3218,305.4648 530.3918,330.2748 " fill="none" id="Main Thread &quot;UI&quot;-to-Recording Thread" style="stroke:#181818;stroke-width:1.0;"/><polygon fill="#181818" points="535.29,333.74,530.2528,325.2767,531.2082,330.8523,525.6326,331.8077,535.29,333.74" style="stroke:#181818;stroke-width:1.0;"/><text fill="#000000" font-family="sans-serif" font-size="13" lengthAdjust="spacing" textLength="107" x="491" y="283.4951">On start_recording</text><text fill="#000000" font-family="sans-serif" font-size="13" lengthAdjust="spacing" textLength="54" x="519.5" y="299.8467">initializes</text></g><!--link Main Thread "UI" to Transcription Thread--><g id="link_Main Thread &quot;UI&quot;_Transcription Thread"><path d="M359.45,238.68 C335.81,261.17 298,304.38 298,350.5 C298,350.5 298,350.5 298,537 C298,710.78 347.468,911.0615 364.208,974.0115 " fill="none" id="Main Thread &quot;UI&quot;-to-Transcription Thread" style="stroke:#181818;stroke-width:1.0;"/><polygon fill="#181818" points="365.75,979.81,367.3027,970.0843,364.465,974.9779,359.5714,972.1403,365.75,979.81" style="stroke:#181818;stroke-width:1.0;"/><text fill="#000000" font-family="sans-serif" font-size="13" lengthAdjust="spacing" textLength="106" x="304" y="604.4951">On stop_recording</text><text fill="#000000" font-family="sans-serif" font-size="13" lengthAdjust="spacing" textLength="54" x="332" y="620.8467">initializes</text></g><!--link Recording Thread to Sound Device Thread--><g id="link_Recording Thread_Sound Device Thread"><path d="M559,370.47 C559,391.44 559,420.01 559,441.73 " fill="none" id="Recording Thread-to-Sound Device Thread" style="stroke:#181818;stroke-width:1.0;"/><polygon fill="#181818" points="559,447.73,563,438.73,559,442.73,555,438.73,559,447.73" style="stroke:#181818;stroke-width:1.0;"/><text fill="#000000" font-family="sans-serif" font-size="13" lengthAdjust="spacing" textLength="54" x="560" y="414.4951">Initializes</text></g><!--link Recording Thread to Whisper Thread--><g id="link_Recording Thread_Whisper Thread"><path d="M587.85,369.03 C641.23,401.65 753.15,480.16 788,583 C801.82,623.78 826.79,644.52 801,679 C788.88,695.2 747.773,706.5207 708.163,714.4607 " fill="none" id="Recording Thread-to-Whisper Thread" style="stroke:#181818;stroke-width:1.0;"/><polygon fill="#181818" points="702.28,715.64,711.8906,717.7931,707.1825,714.6573,710.3183,709.9491,702.28,715.64" style="stroke:#181818;stroke-width:1.0;"/><text fill="#000000" font-family="sans-serif" font-size="13" lengthAdjust="spacing" textLength="54" x="776" y="541.4951">Initializes</text></g><!--link Sound Device Thread to Audio Queue--><g id="link_Sound Device Thread_Audio Queue"><path d="M473.37,475.19 C444.07,481.74 414.14,494.53 396,519 C387,531.14 388.03,540.16 396,553 C406.33,569.65 418.1414,578.7514 435.8414,586.7414 " fill="none" id="Sound Device Thread-to-Audio Queue" style="stroke:#181818;stroke-width:1.0;"/><polygon fill="#181818" points="441.31,589.21,434.7528,581.8613,436.7528,587.1528,431.4613,589.1528,441.31,589.21" style="stroke:#181818;stroke-width:1.0;"/><text fill="#000000" font-family="sans-serif" font-size="13" lengthAdjust="spacing" textLength="118" x="397" y="541.4951">Sends audio chunks</text></g><!--link Audio Queue to Sound Device Thread--><g id="link_Audio Queue_Sound Device Thread"><path d="M512.51,582.83 C523.33,556.45 538.5311,519.3804 548.7011,494.6104 " fill="none" id="Audio Queue-to-Sound Device Thread" style="stroke:#181818;stroke-width:1.0;"/><polygon fill="#181818" points="550.98,489.06,543.8614,495.8663,549.0809,493.6853,551.262,498.9048,550.98,489.06" style="stroke:#181818;stroke-width:1.0;"/><text fill="#000000" font-family="sans-serif" font-size="13" lengthAdjust="spacing" textLength="58" x="538" y="541.4951">Dequeues</text></g><!--link Sound Device Thread to Transcription Queue--><g id="link_Sound Device Thread_Transcription Queue"><path d="M576.94,488.75 C585.45,497.91 595.76,509.01 605,519 C624.92,540.55 643.4941,560.7485 659.5841,578.2885 " fill="none" id="Sound Device Thread-to-Transcription Queue" style="stroke:#181818;stroke-width:1.0;"/><polygon fill="#181818" points="663.64,582.71,660.5037,573.3738,660.26,579.0255,654.6084,578.7818,663.64,582.71" style="stroke:#181818;stroke-width:1.0;"/><text fill="#000000" font-family="sans-serif" font-size="13" lengthAdjust="spacing" textLength="109" x="636" y="533.4951">If is_recording True</text><text fill="#000000" font-family="sans-serif" font-size="13" lengthAdjust="spacing" textLength="49" x="668" y="549.8467">enqueus</text></g><!--link Transcription Queue to Whisper Thread--><g id="link_Transcription Queue_Whisper Thread"><path d="M623.85,631.18 C611.55,638.77 600.19,648.55 593,661 C582.65,678.91 595.5303,693.8235 612.6703,706.3835 " fill="none" id="Transcription Queue-to-Whisper Thread" style="stroke:#181818;stroke-width:1.0;"/><polygon fill="#181818" points="617.51,709.93,612.6148,701.3838,613.4769,706.9746,607.8862,707.8368,617.51,709.93" style="stroke:#181818;stroke-width:1.0;"/><text fill="#000000" font-family="sans-serif" font-size="13" lengthAdjust="spacing" textLength="202" x="594" y="675.4951">Dequeues if audio chunks available</text></g><!--link Whisper Thread to Live Text UI Queue--><g id="link_Whisper Thread_Live Text UI Queue"><path d="M647,744.27 C651.88,761.82 661.59,789.36 678,808 C688.46,819.88 697.066,826.8119 710.656,834.7919 " fill="none" id="Whisper Thread-to-Live Text UI Queue" style="stroke:#181818;stroke-width:1.0;"/><polygon fill="#181818" points="715.83,837.83,710.0945,829.8235,711.5184,835.2982,706.0437,836.7221,715.83,837.83" style="stroke:#181818;stroke-width:1.0;"/><text fill="#000000" font-family="sans-serif" font-size="13" lengthAdjust="spacing" textLength="200" x="679" y="796.4951">Enqueus transcribed audio chunks</text></g><!--link Whisper Thread to saved_block--><g id="link_Whisper Thread_saved_block"><path d="M576.3,734.59 C544.92,740.77 508.63,752.34 482,774 C461.85,790.39 451.3608,812.306 444.5808,832.026 " fill="none" id="Whisper Thread-to-saved_block" style="stroke:#181818;stroke-width:1.0;"/><polygon fill="#181818" points="442.63,837.7,449.3389,830.4895,444.2557,832.9717,441.7735,827.8885,442.63,837.7" style="stroke:#181818;stroke-width:1.0;"/><text fill="#000000" font-family="sans-serif" font-size="13" lengthAdjust="spacing" textLength="162" x="483" y="788.4951">Appends all transcribed text</text><text fill="#000000" font-family="sans-serif" font-size="13" lengthAdjust="spacing" textLength="85" x="525.5" y="804.8467">blocks in order</text></g><!--link saved_block to Transcription Thread--><g id="link_saved_block_Transcription Thread"><path d="M424.97,886.07 C412.37,912.44 394.5462,949.726 382.7762,974.366 " fill="none" id="saved_block-to-Transcription Thread" style="stroke:#181818;stroke-width:1.0;"/><polygon fill="#181818" points="380.19,979.78,387.6786,973.3831,382.3451,975.2683,380.4599,969.9348,380.19,979.78" style="stroke:#181818;stroke-width:1.0;"/><text fill="#000000" font-family="sans-serif" font-size="13" lengthAdjust="spacing" textLength="127" x="410" y="930.4951">After Whisper finished</text><text fill="#000000" font-family="sans-serif" font-size="13" lengthAdjust="spacing" textLength="56" x="449.5" y="946.8467">dequeues</text></g><!--link Transcription Thread to API Request for Ollama qwen2.5--><g id="link_Transcription Thread_API Request for Ollama qwen2.5"><path d="M371,1020.14 C371,1041 371,1068.49 371,1091.67 " fill="none" id="Transcription Thread-to-API Request for Ollama qwen2.5" style="stroke:#181818;stroke-width:1.0;"/><polygon fill="#181818" points="371,1097.67,375,1088.67,371,1092.67,367,1088.67,371,1097.67" style="stroke:#181818;stroke-width:1.0;"/><text fill="#000000" font-family="sans-serif" font-size="13" lengthAdjust="spacing" textLength="173" x="372" y="1064.4951">Sent saved_block with prompt</text></g><!--link API Request for Ollama qwen2.5 to cleaned_notes--><g id="link_API Request for Ollama qwen2.5_cleaned_notes"><path d="M350.71,1150.65 C329.17,1177.33 299.198,1214.4707 278.338,1240.3207 " fill="none" id="API Request for Ollama qwen2.5-to-cleaned_notes" style="stroke:#181818;stroke-width:1.0;"/><polygon fill="#181818" points="274.57,1244.99,283.3348,1240.498,277.71,1241.0989,277.1091,1235.4741,274.57,1244.99" style="stroke:#181818;stroke-width:1.0;"/><text fill="#000000" font-family="sans-serif" font-size="13" lengthAdjust="spacing" textLength="124" x="366.5" y="1195.4951">Receives API request</text><text fill="#000000" font-family="sans-serif" font-size="13" lengthAdjust="spacing" textLength="203" x="329" y="1211.8467">refine() formates into cleaned notes</text></g><!--link cleaned_notes to Main Thread "UI"--><g id="link_cleaned_notes_Main Thread &quot;UI&quot;"><path d="M240.15,1244.97 C222.98,1217.72 198,1170.37 198,1125.5 C198,350.5 198,350.5 198,350.5 C198,286.46 268.8706,253.2814 322.1306,236.7214 " fill="none" id="cleaned_notes-to-Main Thread &quot;UI&quot;" style="stroke:#181818;stroke-width:1.0;"/><polygon fill="#181818" points="327.86,234.94,318.0782,233.7925,323.0855,236.4245,320.4535,241.4318,327.86,234.94" style="stroke:#181818;stroke-width:1.0;"/><text fill="#000000" font-family="sans-serif" font-size="13" lengthAdjust="spacing" textLength="58" x="199" y="731.9951">Dequeues</text></g><!--link Live Text UI Queue to Main Thread "UI"--><g id="link_Live Text UI Queue_Main Thread &quot;UI&quot;"><path d="M843.79,837.92 C858.81,830.41 873.22,820.64 884,808 C908.07,779.78 906,764.59 906,727.5 C906,350.5 906,350.5 906,350.5 C906,258.42 604.8527,232.6356 459.0827,225.4456 " fill="none" id="Live Text UI Queue-to-Main Thread &quot;UI&quot;" style="stroke:#181818;stroke-width:1.0;"/><polygon fill="#181818" points="453.09,225.15,461.882,229.5885,458.0839,225.3963,462.2761,221.5982,453.09,225.15" style="stroke:#181818;stroke-width:1.0;"/><text fill="#000000" font-family="sans-serif" font-size="13" lengthAdjust="spacing" textLength="58" x="907" y="541.4951">Dequeues</text></g><!--link cleaned_notes to UI Display--><g id="link_cleaned_notes_UI Display"><path d="M191.27,1293.28 C178.8,1300.81 167.35,1310.54 160,1323 C151.34,1337.67 153.8041,1352.026 158.6341,1365.416 " fill="none" id="cleaned_notes-to-UI Display" style="stroke:#181818;stroke-width:1.0;"/><polygon fill="#181818" points="160.67,1371.06,161.3788,1361.2367,158.9734,1366.3566,153.8535,1363.9512,160.67,1371.06" style="stroke:#181818;stroke-width:1.0;"/><text fill="#000000" font-family="sans-serif" font-size="13" lengthAdjust="spacing" textLength="135" x="161" y="1337.4951">Displays cleaned notes</text></g><!--link cleaned_notes to Save Text--><g id="link_cleaned_notes_Save Text"><path d="M279.19,1293.17 C287.71,1302.16 297.17,1312.74 305,1323 C316.95,1338.66 325.6705,1352.8764 333.0805,1365.8864 " fill="none" id="cleaned_notes-to-Save Text" style="stroke:#181818;stroke-width:1.0;"/><polygon fill="#181818" points="336.05,1371.1,335.0715,1361.2999,333.5754,1366.7553,328.12,1365.2592,336.05,1371.1" style="stroke:#181818;stroke-width:1.0;"/><text fill="#000000" font-family="sans-serif" font-size="13" lengthAdjust="spacing" textLength="226" x="318" y="1337.4951">Option to save cleaned notes to .txt file</text></g><!--SRC=[ZLHDRzD04BtlhnZbb1mIA0WXSK2A50wM2YbD8WujgYRsk5vbizxkhbCAuhyputowjLCkSUITz-RDU-F5D9OU5e6yKl8Bm-5dw7z5RM5UUC8CUekaDu1FS8cLJGj0vunECUhItbf8h8uQZVvDIhMWQh950XCTdC4deJafkhL7E2oIJe9hIakVQNk_EnCQc5e84Nsyy_jJbgCFV04wwUOURKYzTZB32yhITJEg5YarvQoiR0OJskYKJXYFuuLEw8-2lM7VEr2jp0Ay6LUPBk5xHHNzPDICR1O0wvTfKTbLKCsISq8dz215P_irRJlqJNBGuMWPp7r5x1jPOHJFse6jivye0PqtXW7Se3QuDAHUm6fvbth3WkbNv4qwglkoan5t6fQKDJrg9mkueUnkQSfq9InZvxRk6jDWYjAEXwqBMR85De6_f2R-xDADyyZDzo9oNhTGC3EJPeTCsh4rxVWgWMif315o_f2dnk0QuU6HxBlHXy5sBoASw8577Gjmlboxg5x5rswaXj0otfQHWlZ1gqniTm21-osS5NjY_TGV2DCQeuHe8pkzXKCDLy_PEk-RmqwsHliwxF-ketsqHdhKUMeP13belPPBhI6tbMBtDpmRj1Kvmzqe0fnk0sMB99ycNDwE8il9DQ-ySfYky9wWzqqEU_170VIldcB1-FUZYxVmHXuN42hdIXyf6qX1CytXnoLmEIy1JxV6jE2m1kgl-WS0]--></g></svg>