<?xml version="1.0" encoding="us-ascii" standalone="no"?><svg xmlns="http://www.w3.org/2000/svg" xmlns:xlink="http://www.w3.org/1999/xlink" contentStyleType="text/css" height="1117px" preserveAspectRatio="none" style="width:642px;height:1117px;background:#FFFFFF;" version="1.1" viewBox="0 0 642 1117" width="642px" zoomAndPan="magnify"><defs/><g><!--cluster Notes--><g id="cluster_Notes"><path d="M122,6 L164,6 A3.75,3.75 0 0 1 166.5,8.5 L173.5,29.6094 L633,29.6094 A2.5,2.5 0 0 1 635.5,32.1094 L635.5,105.5 A2.5,2.5 0 0 1 633,108 L122,108 A2.5,2.5 0 0 1 119.5,105.5 L119.5,8.5 A2.5,2.5 0 0 1 122,6 " fill="none" style="stroke:#000000;stroke-width:1.5;"/><line style="stroke:#000000;stroke-width:1.5;" x1="119.5" x2="173.5" y1="29.6094" y2="29.6094"/><text fill="#000000" font-family="sans-serif" font-size="14" font-weight="bold" lengthAdjust="spacing" textLength="41" x="123.5" y="22.5332">Notes</text></g><g id="elem_Python 3.10 / 3.11 supported"><ellipse cx="508.434" cy="66.9868" fill="#F1F1F1" rx="110.434" ry="24.4868" style="stroke:#181818;stroke-width:0.5;"/><text fill="#000000" font-family="sans-serif" font-size="14" lengthAdjust="spacing" textLength="184" x="416.434" y="70.7153">Python 3.10 / 3.11 supported</text></g><g id="elem_Ollama Phi-3 on local machine"><ellipse cx="249.6359" cy="67.1272" fill="#F1F1F1" rx="113.6359" ry="25.1272" style="stroke:#181818;stroke-width:0.5;"/><text fill="#000000" font-family="sans-serif" font-size="14" lengthAdjust="spacing" textLength="191" x="154.1359" y="70.8557">Ollama Phi-3 on local machine</text></g><!--entity User--><g id="elem_User"><ellipse cx="86.5" cy="36.5" fill="#F1F1F1" rx="8" ry="8" style="stroke:#181818;stroke-width:0.5;"/><path d="M86.5,44.5 L86.5,71.5 M73.5,52.5 L99.5,52.5 M86.5,71.5 L73.5,86.5 M86.5,71.5 L99.5,86.5 " fill="none" style="stroke:#181818;stroke-width:0.5;"/><text fill="#000000" font-family="sans-serif" font-size="14" lengthAdjust="spacing" textLength="29" x="72" y="102.5332">User</text></g><g id="elem_Program Begins"><ellipse cx="252.3525" cy="201.3705" fill="#F1F1F1" rx="74.8525" ry="17.3705" style="stroke:#181818;stroke-width:0.5;"/><text fill="#000000" font-family="sans-serif" font-size="14" lengthAdjust="spacing" textLength="101" x="198.8525" y="205.8871">Program Begins</text></g><g id="elem_UI Display"><ellipse cx="364.7356" cy="841.5492" fill="#F1F1F1" rx="55.7356" ry="15.5492" style="stroke:#181818;stroke-width:0.5;"/><text fill="#000000" font-family="sans-serif" font-size="14" lengthAdjust="spacing" textLength="62" x="330.7356" y="846.0658">UI Display</text></g><g id="elem_Microphone"><ellipse cx="74.602" cy="328.6136" fill="#F1F1F1" rx="64.602" ry="15.6136" style="stroke:#181818;stroke-width:0.5;"/><text fill="#000000" font-family="sans-serif" font-size="14" lengthAdjust="spacing" textLength="74" x="34.602" y="333.1302">Microphone</text></g><g id="elem_Real-Time Transcription"><ellipse cx="262.5702" cy="585.614" fill="#F1F1F1" rx="96.0702" ry="21.614" style="stroke:#181818;stroke-width:0.5;"/><text fill="#000000" font-family="sans-serif" font-size="14" lengthAdjust="spacing" textLength="152" x="186.5702" y="589.3426">Real-Time Transcription</text></g><g id="elem_Audio Queue"><ellipse cx="74.4277" cy="454.0855" fill="#F1F1F1" rx="68.4277" ry="16.0855" style="stroke:#181818;stroke-width:0.5;"/><text fill="#000000" font-family="sans-serif" font-size="14" lengthAdjust="spacing" textLength="83" x="29.9277" y="458.6021">Audio Queue</text></g><g id="elem_Text Queue"><ellipse cx="277.602" cy="716.6136" fill="#F1F1F1" rx="64.602" ry="15.6136" style="stroke:#181818;stroke-width:0.5;"/><text fill="#000000" font-family="sans-serif" font-size="14" lengthAdjust="spacing" textLength="74" x="237.602" y="721.1302">Text Queue</text></g><g id="elem_Cleaned Notes"><ellipse cx="364.4259" cy="984.7852" fill="#F1F1F1" rx="71.9259" ry="16.7852" style="stroke:#181818;stroke-width:0.5;"/><text fill="#000000" font-family="sans-serif" font-size="14" lengthAdjust="spacing" textLength="93" x="314.9259" y="989.3018">Cleaned Notes</text></g><g id="elem_Save Text"><ellipse cx="364.4744" cy="1095.5553" fill="#F1F1F1" rx="56.4744" ry="15.5553" style="stroke:#181818;stroke-width:0.5;"/><text fill="#000000" font-family="sans-serif" font-size="14" lengthAdjust="spacing" textLength="63" x="329.9744" y="1100.0719">Save Text</text></g><!--link User to Program Begins--><g id="link_User_Program Begins"><path d="M101.2,93.41 C106.39,101.18 112.66,109.4 119.5,116 C150.22,145.62 187.5695,167.7464 216.2095,182.6764 " fill="none" id="User-to-Program Begins" style="stroke:#181818;stroke-width:1.0;"/><polygon fill="#181818" points="221.53,185.45,215.3983,177.7427,217.0963,183.1387,211.7003,184.8366,221.53,185.45" style="stroke:#181818;stroke-width:1.0;"/><text fill="#000000" font-family="sans-serif" font-size="13" lengthAdjust="spacing" textLength="108" x="167.5" y="150.4951">Launch application</text></g><!--link Program Begins to UI Display--><g id="link_Program Begins_UI Display"><path d="M308.69,213.12 C366.92,227.76 449.5,260.36 449.5,327.5 C449.5,327.5 449.5,327.5 449.5,717.5 C449.5,753.73 448.39,766.4 427.5,796 C418.08,809.35 408.4989,817.0333 395.6389,824.6133 " fill="none" id="Program Begins-to-UI Display" style="stroke:#181818;stroke-width:1.0;"/><polygon fill="#181818" points="390.47,827.66,400.2545,826.5359,394.7774,825.1211,396.1923,819.644,390.47,827.66" style="stroke:#181818;stroke-width:1.0;"/><text fill="#000000" font-family="sans-serif" font-size="13" lengthAdjust="spacing" textLength="71" x="450.5" y="514.4951">Main Thread</text><text fill="#000000" font-family="sans-serif" font-size="13" lengthAdjust="spacing" textLength="63" x="454.5" y="530.8467">Initialize UI</text></g><!--link Program Begins to Microphone--><g id="link_Program Begins_Microphone"><path d="M191.32,211.77 C164.61,218.41 134.44,229.74 112.5,249 C93.04,266.08 84.1928,289.5798 79.4228,307.1398 " fill="none" id="Program Begins-to-Microphone" style="stroke:#181818;stroke-width:1.0;"/><polygon fill="#181818" points="77.85,312.93,84.0694,305.2933,79.1607,308.1049,76.3491,303.1962,77.85,312.93" style="stroke:#181818;stroke-width:1.0;"/><text fill="#000000" font-family="sans-serif" font-size="13" lengthAdjust="spacing" textLength="71" x="139" y="263.4951">Main Thread</text><text fill="#000000" font-family="sans-serif" font-size="13" lengthAdjust="spacing" textLength="122" x="113.5" y="279.8467">Initialize audio thread</text></g><!--link Program Begins to Real-Time Transcription--><g id="link_Program Begins_Real-Time Transcription"><path d="M252.94,219.41 C254.56,281.35 260.0228,489.8121 261.8028,557.7121 " fill="none" id="Program Begins-to-Real-Time Transcription" style="stroke:#181818;stroke-width:1.0;"/><polygon fill="#181818" points="261.96,563.71,265.7228,554.6083,261.829,558.7117,257.7255,554.8179,261.96,563.71" style="stroke:#181818;stroke-width:1.0;"/><text fill="#000000" font-family="sans-serif" font-size="13" lengthAdjust="spacing" textLength="71" x="304" y="388.4951">Main Thread</text><text fill="#000000" font-family="sans-serif" font-size="13" lengthAdjust="spacing" textLength="162" x="258.5" y="404.8467">Initialize transcription thread</text></g><!--link User to Microphone--><g id="link_User_Microphone"><path d="M84.74,106.01 C82.04,164.43 77.2676,267.6664 75.4476,306.9564 " fill="none" id="User-to-Microphone" style="stroke:#181818;stroke-width:1.0;"/><polygon fill="#181818" points="75.17,312.95,79.5822,304.1447,75.4014,307.9554,71.5907,303.7745,75.17,312.95" style="stroke:#181818;stroke-width:1.0;"/><text fill="#000000" font-family="sans-serif" font-size="13" lengthAdjust="spacing" textLength="73" x="82.5" y="206.9951">User speaks</text></g><!--link Microphone to Audio Queue--><g id="link_Microphone_Audio Queue"><path d="M74.5,344.15 C74.5,367.79 74.5,408.11 74.5,431.98 " fill="none" id="Microphone-to-Audio Queue" style="stroke:#181818;stroke-width:1.0;"/><polygon fill="#181818" points="74.5,437.98,78.5,428.98,74.5,432.98,70.5,428.98,74.5,437.98" style="stroke:#181818;stroke-width:1.0;"/><text fill="#000000" font-family="sans-serif" font-size="13" lengthAdjust="spacing" textLength="50" x="106" y="388.4951">Thread 1</text><text fill="#000000" font-family="sans-serif" font-size="13" lengthAdjust="spacing" textLength="111" x="75.5" y="404.8467">Send audio chunks</text></g><!--link Audio Queue to Real-Time Transcription--><g id="link_Audio Queue_Real-Time Transcription"><path d="M68.69,470.11 C63.12,487.42 57.43,515.73 71.5,534 C85.49,552.17 131.094,564.0821 177.094,572.3221 " fill="none" id="Audio Queue-to-Real-Time Transcription" style="stroke:#181818;stroke-width:1.0;"/><polygon fill="#181818" points="183,573.38,174.8463,567.8558,178.0783,572.4984,173.4357,575.7304,183,573.38" style="stroke:#181818;stroke-width:1.0;"/><text fill="#000000" font-family="sans-serif" font-size="13" lengthAdjust="spacing" textLength="50" x="129" y="514.4951">Thread 2</text><text fill="#000000" font-family="sans-serif" font-size="13" lengthAdjust="spacing" textLength="163" x="72.5" y="530.8467">OpneAI Whisper transcribes</text></g><!--link Real-Time Transcription to Text Queue--><g id="link_Real-Time Transcription_Text Queue"><path d="M264.91,607.23 C267.96,633.44 272.4363,671.9402 275.1063,694.8802 " fill="none" id="Real-Time Transcription-to-Text Queue" style="stroke:#181818;stroke-width:1.0;"/><polygon fill="#181818" points="275.8,700.84,278.7327,691.4379,275.2219,695.8735,270.7863,692.3628,275.8,700.84" style="stroke:#181818;stroke-width:1.0;"/><text fill="#000000" font-family="sans-serif" font-size="13" lengthAdjust="spacing" textLength="50" x="298.5" y="651.4951">Thread 2</text><text fill="#000000" font-family="sans-serif" font-size="13" lengthAdjust="spacing" textLength="102" x="272.5" y="667.8467">Send text chunks</text></g><!--link Text Queue to UI Display--><g id="link_Text Queue_UI Display"><path d="M274.73,732.11 C272.37,748.92 271.06,776.7 283.5,796 C293.75,811.92 306.2392,820.2839 322.6692,827.1939 " fill="none" id="Text Queue-to-UI Display" style="stroke:#181818;stroke-width:1.0;"/><polygon fill="#181818" points="328.2,829.52,321.4546,822.3437,323.591,827.5816,318.3531,829.718,328.2,829.52" style="stroke:#181818;stroke-width:1.0;"/><text fill="#000000" font-family="sans-serif" font-size="13" lengthAdjust="spacing" textLength="71" x="318" y="776.4951">Main Thread</text><text fill="#000000" font-family="sans-serif" font-size="13" lengthAdjust="spacing" textLength="138" x="284.5" y="792.8467">Append text in real time</text></g><!--link UI Display to Cleaned Notes--><g id="link_UI Display_Cleaned Notes"><path d="M364.5,857.11 C364.5,883.8 364.5,934.24 364.5,961.96 " fill="none" id="UI Display-to-Cleaned Notes" style="stroke:#181818;stroke-width:1.0;"/><polygon fill="#181818" points="364.5,967.96,368.5,958.96,364.5,962.96,360.5,958.96,364.5,967.96" style="stroke:#181818;stroke-width:1.0;"/><text fill="#000000" font-family="sans-serif" font-size="13" lengthAdjust="spacing" textLength="86" x="423.5" y="901.4951">When Stopped</text><text fill="#000000" font-family="sans-serif" font-size="13" lengthAdjust="spacing" textLength="202" x="365.5" y="917.8467">Send full transcript to Ollama Phi-3</text><text fill="#000000" font-family="sans-serif" font-size="13" lengthAdjust="spacing" textLength="114" x="409.5" y="934.1982">with custom prompt</text></g><!--link Cleaned Notes to Save Text--><g id="link_Cleaned Notes_Save Text"><path d="M364.5,1002.01 C364.5,1022.99 364.5,1053.51 364.5,1073.82 " fill="none" id="Cleaned Notes-to-Save Text" style="stroke:#181818;stroke-width:1.0;"/><polygon fill="#181818" points="364.5,1079.82,368.5,1070.82,364.5,1074.82,360.5,1070.82,364.5,1079.82" style="stroke:#181818;stroke-width:1.0;"/><text fill="#000000" font-family="sans-serif" font-size="13" lengthAdjust="spacing" textLength="226" x="365.5" y="1046.4951">Option to save cleaned notes to .txt file</text></g><!--SRC=[XPF1JXmn38RlUGgBKpaixSAjXqhRzh9IwGAxAovxSJDc4v5neiH32rNVlKuweA5euJAHxD-_lzWPj18pR0jbO-eNPhDFyEuYntt67ZxJtdCvXe_m3GUs3Z2bu2sAZspC2rchtIxXgoyfu7sjEqVFi76PiDlnahru3Fw1OBiyK7xkROx9HQRNod7eV0HfYGD6LuHXjl4zmIOZ5vjzgjYlkSfK-EW-dSjpk1OlYV2sw32ckIPUDCRBWOQc_jSFvZjU4tVZ3QmRk5K_4x_5FrgTxdYLc1PBk7OwSOLvlC0FAkQmGRFVq2zv0NSwmabDFh5DfM-jU97Iau66DHX0b45jfbNDvaiWPEhWUnHgZ-pQ4SDQedfq8ydD4C9aBo0HLY5WZt3X_Eninp-zEB13aTX3oh5FOlutRitMUAU3KApQQ3LkE4AfOJlgkUfhz4GK_yO7nKveRt5FSDJCZk2t0Vq_xaKN3MSdym_mlXvpA4DACGjrnrKmPGHLXcXr43rQv_Lzc3_cBm00]--></g></svg>